<?xml version="1.0" encoding="UTF-8" standalone="no"?>
<!-- Created with Inkscape (http://www.inkscape.org/) -->

<svg
   xmlns:svg="http://www.w3.org/2000/svg"
   xmlns="http://www.w3.org/2000/svg"
   version="1.1"
   width="656.94354"
   height="315.00003"
   id="svg2">
  <defs
     id="defs4" />
  <g
     id="layer1">
    <path
       d="M -0.01066,19.000019 L -0.01066,167.00003 L 117.98935,167.00003 L 117.98935,123 L 55.98934,123 L 55.98934,111.00003 L 117.98935,111.00003 L 117.98935,75.000027 L 55.98934,75.000027 L 55.98934,63.000027 L 117.98935,63.000027 L 117.98935,19.000019 L -0.01066,19.000019 z"
       id="e1"
       style="fill:#cccccc" />
    <path
       d="M 117.98935,43 L 117.98935,111 L 117.98935,121 L 163.48935,121 L 163.48935,135 L 117.98935,135 L 117.98935,167.00003 L 196.98935,167.00003 L 196.98935,89 L 154.1456,89 L 154.1456,75 L 196.98935,75 L 196.98935,43 L 117.98935,43 z"
       id="s1"
       style="fill:#4d4d4d" />
    <path
       d="M 196.98935,43 L 196.98935,167.00003 C 225.32268,167.00003 253.65602,167.00003 281.98935,167.00003 L 281.98935,121 L 244.98935,121 L 244.98935,89 L 281.98935,89 L 281.98935,43 L 196.98935,43 z"
       id="c1"
       style="fill:#cccccc" />
    <path
       d="M 281.98935,0 L 281.98935,167.00003 L 326.23935,167.00003 L 326.23935,89 L 342.80185,89 L 342.80185,167.00003 L 387.05185,167.00003 L 387.05185,43 L 326.23935,43 L 326.23935,0 L 281.98935,0 z"
       id="h1"
       style="fill:#666666" />
    <path
       d="M 387.0579,43 L 387.0579,167.00003 L 485.92276,167.00003 L 485.92276,130.13514 L 433.97682,130.13514 L 433.97682,120.08108 L 485.92276,120.08108 L 485.92276,89.91892 L 433.97682,89.91892 L 433.97682,79.86486 L 485.92276,79.86486 L 485.92276,43 C 452.96781,43 420.01285,43 387.0579,43 z"
       id="e2"
       style="fill:#cccccc" />
    <path
       d="M 485.92276,43 L 485.92276,167.00003 L 518.92276,167.00003 L 518.92276,96.14215 L 533.06491,82 L 559.85045,82 L 577.92282,100.07237 L 577.92282,61.07237 L 559.85045,43 L 533.06491,43 L 518.92276,57.14215 L 518.92276,43 L 485.92276,43 z"
       id="r1"
       style="fill:#666666" />
    <path
       d="M 595.99522,19 L 559.85048,19 L 559.85048,43 L 577.92282,61.07237 L 595.99522,43 L 595.99522,19 z"
       id="apostrophe"
       style="fill:#333333" />
    <path
       d="M 595.99522,43 L 577.92282,61.07237 L 577.93292,121 L 623.43292,121 L 623.43292,135 L 577.93292,135 L 577.93292,167.00003 L 656.93292,167.00003 L 656.93292,89 L 614.05792,89 L 614.05792,75 L 656.93292,75 L 656.93292,43 L 595.99524,43 L 595.99522,43 z"
       id="s2"
       style="fill:#ebebeb" />
    <path
       d="M -0.01065,167.00003 L -0.01065,315.00003 L 55.98935,315.00003 L 55.98935,270.40623 L 78.48935,287.43753 L 101.0206,270.40623 L 101.0206,315.00003 L 157.0206,315.00003 L 157.0206,167.00003 L 78.48935,226.37503 L -0.01065,167.00003 z"
       id="m1"
       style="fill:#999999" />
    <path
       d="M 157.01877,167.00012 L 205.01876,167.00012 L 205.01876,291.0001 L 157.01877,291.0001 L 157.01877,167.00012 z"
       id="i1"
       style="fill:#4d4d4d" />
    <path
       d="M 205.01877,167.00003 L 205.01877,291.00003 L 238.01877,291.00003 L 238.01877,220.14213 L 252.16092,206.00003 L 278.94646,206.00003 L 297.01883,224.07233 L 297.01883,185.07233 L 278.94646,167.00003 L 252.16092,167.00003 L 238.01877,181.14213 L 238.01877,167.00003 L 205.01877,167.00003 z"
       id="r2"
       style="fill:#666666" />
    <path
       d="M 297.01883,167.00003 L 297.01883,291.00003 L 330.01883,291.00003 L 330.01883,220.14213 L 344.16098,206.00003 L 370.94652,206.00003 L 389.01889,224.07233 L 389.01889,185.07233 L 370.94652,167.00003 L 344.16098,167.00003 L 330.01883,181.14213 L 330.01883,167.00003 L 297.01883,167.00003 z"
       id="r3"
       style="fill:#cccccc" />
    <path
       d="M 496.92685,167.00003 L 448.92685,213.00003 L 437.0206,213.00003 L 437.0206,245.00003 L 448.92685,245.00003 L 448.92685,213.00003 L 496.92685,167.00003 L 496.92685,291.00003 L 389.0206,291.00003 L 389.0206,167.00003 L 496.92685,167.00003 z"
       id="o1"
       style="fill:#4d4d4d" />
    <path
       d="M 496.92276,167.00003 L 496.92276,291.00003 L 529.92276,291.00003 L 529.92276,220.14213 L 544.06491,206.00003 L 570.85045,206.00003 L 588.92282,224.07233 L 588.92282,185.07233 L 570.85045,167.00003 L 544.06491,167.00003 L 529.92276,181.14213 L 529.92276,167.00003 L 496.92276,167.00003 z"
       id="r4"
       style="fill:#cccccc" />
  </g>
</svg>
